# xmcd CD database file
#
# Track frame offsets:
# 150
# 12187
# 38464
# 61083
# 82159
# 105954
# 126463
# 147750
# 160051
# 170708
# 182339
# 193133
# 205515
# 226578
# 239224
# 260202
#
# Disc length: 3649 seconds
# Revision: 4
# Processed by: cddbd v1.5.2PL0 Copyright (c) Steve Scherf et al.
# Submitted via: MusicBin 0.4
#
DISCID=d30e3f10
DTITLE=Various Artist - Cold Heat: Heavy Funk Rarities 1968-1974, Vol. 1
DYEAR=2004
DGENRE=Funk
TTITLE0=Carleen and The Groovers - The Thing
TTITLE1=Amnesty - Free Your Mind
TTITLE2=Detroit Sex Machines - The Stretch (Edit)
TTITLE3=Michael Liggins and The Supersouls - Loaded To The Gills (Ed
TTITLE3=it)
TTITLE4=Kenny Smith and The Loveliters - Go For Your Self (Edit)
TTITLE5=Dayton Sidewinders - Slipping Into Darkness
TTITLE6=Apollo Commanders - James Brown Medley: I Made A Mistake -
TTITLE6=Lowdown Popcorn
TTITLE7=Lil' Lavair And The Fabulous Jades - Cold Heat
TTITLE8=Soul Seven - The Cissy's Thang
TTITLE9=L.A. Carnival - Color (Original 7" Version)
TTITLE10=Aristocrats - Don't Go
TTITLE11=Ebony Rhythm Band - Drugs Ain't Cool (Instrumental)
TTITLE12=Soul Seven - Mr. Chicken ---- (Alternate Take)
TTITLE13=Leon Mitchison - Street Scene
TTITLE14=Kashmere Stage Band - Scorpio
TTITLE15=Leroy and The Drivers - The Sad Chicken
EXTD=
EXTT0=YEAR: 1971
EXTT1=YEAR: 1974
EXTT2=YEAR: 1970
EXTT3=YEAR: 1970
EXTT4=YEAR: 1968
EXTT5=YEAR: 1973
EXTT6=YEAR: 1970
EXTT7=YEAR: 1970
EXTT8=YEAR: 1969
EXTT9=YEAR: 1970
EXTT10=YEAR: 1974
EXTT11=YEAR: 1969
EXTT12=YEAR: 1969
EXTT13=YEAR: 1974
EXTT14=YEAR: 1972
EXTT15=YEAR: 1968
PLAYORDER=
